<svg xmlns="http://www.w3.org/2000/svg" viewBox="0 0 48 48"><title>47-Online Education</title><g id="_47-Online_Education" data-name="47-Online Education"><path d="M43,48H38V46h5a3,3,0,0,0,3-3V5a3,3,0,0,0-3-3H5A3,3,0,0,0,2,5V43a3,3,0,0,0,3,3h5v2H5a5.006,5.006,0,0,1-5-5V5A5.006,5.006,0,0,1,5,0H43a5.006,5.006,0,0,1,5,5V43A5.006,5.006,0,0,1,43,48Z"/><rect x="4" y="8" width="40" height="2"/><rect x="5" y="4" width="2" height="2"/><rect x="9" y="4" width="2" height="2"/><rect x="41" y="4" width="2" height="2"/><rect x="23" y="29" width="2" height="7"/><path d="M24,30a1,1,0,0,1-.388-.078l-19-8a1,1,0,0,1,0-1.844l19-8a1.013,1.013,0,0,1,.776,0l19,8a1,1,0,0,1,0,1.844l-19,8A1,1,0,0,1,24,30ZM7.577,21,24,27.915,40.423,21,24,14.085Z"/><path d="M24,46a.99.99,0,0,1-.419-.092l-13-6A1,1,0,0,1,10,39V23h2V38.36L24,43.9,36,38.36V23h2V39a1,1,0,0,1-.581.908l-13,6A.99.99,0,0,1,24,46Z"/><path d="M42,35H40a1,1,0,0,1-1-1V28a1,1,0,0,1,1-1h2V21h2V33a1,1,0,0,1-.293.707l-1,1A1,1,0,0,1,42,35Zm-1-2h.586L42,32.586V29H41Z"/><rect x="22" y="20" width="4" height="2"/></g></svg>