<svg xmlns="http://www.w3.org/2000/svg" viewBox="0 0 48 47.94"><defs><style>.cls-1{fill:#201602;}</style></defs><title>Asset 8ldpi</title><g id="Layer_2" data-name="Layer 2"><g id="layer_1-2" data-name="layer 1"><path class="cls-1" d="M24,26.94c-2.21,0-4-2.25-4-5a3.71,3.71,0,0,1,4-4,3.71,3.71,0,0,1,4,4C28,24.69,26.21,26.94,24,26.94Zm0-7c-1.79,0-2,1.14-2,2,0,1.59.93,3,2,3s2-1.41,2-3C26,21.08,25.79,19.94,24,19.94Z"/><path class="cls-1" d="M31,31.94H29V28.63a1,1,0,0,0-.84-1L24,27l-4.16.69a1,1,0,0,0-.84,1v3.31H17V28.63a3,3,0,0,1,2.51-3L23.84,25a.86.86,0,0,1,.32,0l4.33.72a3,3,0,0,1,2.51,3Z"/><path class="cls-1" d="M7,32.94c-2.21,0-4-2.25-4-5a3.71,3.71,0,0,1,4-4,3.71,3.71,0,0,1,4,4C11,30.69,9.21,32.94,7,32.94Zm0-7c-1.79,0-2,1.14-2,2,0,1.59.93,3,2,3s2-1.41,2-3C9,27.08,8.79,25.94,7,25.94Z"/><path class="cls-1" d="M14,37.94H12V34.63a1,1,0,0,0-.84-1L7,33l-4.16.69a1,1,0,0,0-.84,1v3.31H0V34.63a3,3,0,0,1,2.51-3L6.84,31a.86.86,0,0,1,.32,0l4.33.72a3,3,0,0,1,2.51,3Z"/><path class="cls-1" d="M41,20.94c-2.21,0-4-2.25-4-5a3.71,3.71,0,0,1,4-4,3.71,3.71,0,0,1,4,4C45,18.69,43.21,20.94,41,20.94Zm0-7c-1.79,0-2,1.14-2,2,0,1.59.93,3,2,3s2-1.41,2-3C43,15.08,42.79,13.94,41,13.94Z"/><path class="cls-1" d="M48,25.94H46V22.63a1,1,0,0,0-.84-1L41,21l-4.16.69a1,1,0,0,0-.84,1v3.31H34V22.63a3,3,0,0,1,2.51-3L40.84,19a.86.86,0,0,1,.32,0l4.33.72a3,3,0,0,1,2.51,3Z"/><path class="cls-1" d="M47,47.94H1a1,1,0,0,1-1-1v-6a1,1,0,0,1,1-1H16v-5a1,1,0,0,1,1-1H33v-5a1,1,0,0,1,1-1H47a1,1,0,0,1,1,1v18A1,1,0,0,1,47,47.94Zm-45-2H46v-16H35v5a1,1,0,0,1-1,1H18v5a1,1,0,0,1-1,1H2Z"/><rect class="cls-1" x="0.23" y="8.94" width="47.54" height="2" transform="translate(-1.73 6.37) rotate(-14.59)"/><path class="cls-1" d="M41.71,10.64,40.29,9.23l4.9-4.9L38.65,1.87,39.35,0l8,3a1,1,0,0,1,.36,1.64Z"/><rect class="cls-1" x="16" y="40.94" width="2" height="6"/><rect class="cls-1" x="33" y="34.94" width="2" height="12"/></g></g></svg>